PathFileType	4	(X/Y/Z)	SUBJ11_0_static_RCNL2025.trc
DataRate	CameraRate	NumFrames	NumMarkers	Units	OrigDataRate	OrigDataStartFrame	OrigNumFrames
100	100	11	25	mm	100	31	120
Frame#	Time	R_Shoulder			L_Shoulder			C7			J_Notch			R_Elbow			L_Elbow			R_Wrist			L_Wrist			R_Asis			L_Asis			Sacral			Thoracic			Sternum			R_Thigh_Lateral			R_Knee_Lateral			R_Shank_Lateral			R_Ankle_Lateral			R_Heel			R_Toe			L_Thigh_Lateral			L_Knee_Lateral			L_Shank_Lateral			L_Ankle_Lateral			L_Heel			L_Toe		
		X1	Y1	Z1	X2	Y2	Z2	X3	Y3	Z3	X4	Y4	Z4	X5	Y5	Z5	X6	Y6	Z6	X7	Y7	Z7	X8	Y8	Z8	X9	Y9	Z9	X10	Y10	Z10	X11	Y11	Z11	X12	Y12	Z12	X13	Y13	Z13	X14	Y14	Z14	X15	Y15	Z15	X16	Y16	Z16	X17	Y17	Z17	X18	Y18	Z18	X19	Y19	Z19	X20	Y20	Z20	X21	Y21	Z21	X22	Y22	Z22	X23	Y23	Z23	X24	Y24	Z24	X25	Y25	Z25
31	0.30000000	-332.677734	1317.500732	17.285736	-334.681030	1359.967651	-419.040833	-400.789154	1423.234131	-208.574509	-266.838593	1322.042358	-214.229095	-389.216553	1053.049072	128.030487	-337.686188	1078.079346	-545.900085	-322.485550	803.110046	145.813412	-264.030090	826.123596	-573.535767	-255.668930	905.312439	-106.636581	-275.809570	917.409607	-356.544098	-447.620117	947.436279	-206.493546	-468.933197	1204.400635	-207.725388	-219.013565	1166.953857	-228.503067	-317.270935	576.003235	-7.125566	-372.466217	460.712341	-83.346497	-388.677368	246.130203	-20.181362	-409.509216	64.568123	-81.688927	-451.185242	54.468975	-136.561203	-271.837189	43.143288	-96.994827	-368.628510	584.966980	-425.221466	-366.743195	478.221252	-373.659058	-412.511871	239.990204	-415.775635	-409.167328	64.156342	-361.268555	-452.892639	62.241570	-298.744995	-249.104843	64.464447	-348.881378
32	0.31000000	-332.670044	1317.476318	17.238106	-334.835419	1360.012573	-419.126862	-400.788788	1423.234619	-208.574173	-266.535217	1322.131348	-214.152527	-389.219116	1053.055786	128.011993	-337.576721	1078.001587	-545.827026	-322.499756	803.119385	145.739391	-263.902199	826.102356	-573.773407	-255.441635	905.400208	-106.497086	-275.802917	917.432495	-356.548096	-447.618927	947.429016	-206.500244	-468.917664	1204.419312	-207.745239	-218.966064	1167.119141	-228.506378	-317.464355	576.222046	-6.987252	-372.491180	460.707611	-83.385689	-389.265259	246.564392	-19.780972	-409.384888	64.384064	-81.789024	-451.037720	54.435345	-136.519684	-271.992523	43.373547	-97.035851	-368.612549	584.899841	-425.196106	-366.666718	478.136566	-373.784912	-412.516754	239.944839	-415.770905	-409.144165	64.134811	-361.245483	-452.918945	62.380596	-298.747711	-249.028275	64.446609	-348.918915
33	0.32000000	-332.653748	1317.434814	17.225609	-334.612793	1360.099854	-418.915497	-400.789612	1423.240601	-208.549942	-266.689087	1322.017212	-214.270645	-389.204224	1052.996704	127.906448	-337.448578	1078.095825	-545.775879	-322.715912	802.812927	145.848389	-263.762054	826.187714	-573.634064	-255.391190	905.375000	-106.447975	-275.769989	917.400940	-356.502167	-447.617737	947.430237	-206.498413	-469.009277	1204.420654	-207.767670	-218.790146	1167.155762	-228.430832	-317.695953	576.413818	-6.802674	-372.541534	460.904907	-83.355469	-389.345917	246.536469	-19.738422	-409.082428	64.110901	-81.993431	-451.093506	54.439968	-136.511398	-272.156555	43.572762	-97.003685	-368.488037	584.790710	-425.245575	-366.771240	478.144501	-373.745789	-412.490601	239.963516	-415.769135	-409.316193	64.812119	-362.162659	-452.925690	62.334713	-298.699280	-248.984955	64.440529	-348.908112
34	0.33000000	-332.762604	1317.592407	17.166285	-334.567596	1360.005249	-418.857635	-400.858429	1423.272583	-208.640396	-267.060089	1321.867920	-214.409348	-389.325592	1053.031494	127.859650	-337.386993	1078.062988	-545.721252	-323.072952	802.589508	145.999832	-263.648262	826.162720	-573.603912	-255.351669	905.444580	-106.340500	-275.734772	917.424255	-356.515015	-447.681641	947.427307	-206.568970	-469.017334	1204.406982	-207.767441	-218.741409	1167.125488	-228.478897	-317.619873	576.311401	-6.961997	-372.486267	460.730225	-83.383835	-389.173370	246.445831	-19.871103	-408.952209	64.098335	-82.068115	-451.051514	54.429466	-136.471954	-272.217743	43.615147	-96.972466	-368.487701	584.933716	-425.324615	-366.634369	478.129578	-373.834869	-412.386047	239.942932	-415.718781	-409.226105	64.232864	-361.352753	-452.931824	62.374699	-298.745697	-248.979843	64.442482	-348.900238
35	0.34000000	-332.790894	1317.471558	17.156639	-335.181946	1359.959106	-419.473053	-400.877869	1423.164795	-208.520203	-267.632751	1321.843628	-214.635300	-389.298676	1052.968628	127.826393	-337.448883	1078.148804	-545.729187	-323.288788	802.437103	145.934540	-263.555687	826.189697	-573.522675	-255.317734	905.318237	-106.315567	-275.626495	917.438416	-356.429504	-447.758911	947.421509	-206.531967	-468.996429	1204.380981	-207.797043	-218.799957	1167.164307	-228.502258	-317.529114	576.106140	-7.067945	-372.591431	460.800415	-83.456337	-388.296722	245.831635	-20.736765	-408.963257	63.985664	-82.084587	-451.083221	54.453075	-136.642746	-272.111389	43.428062	-97.014938	-368.488037	584.921814	-425.308655	-366.645874	478.147064	-373.867401	-412.411774	239.943405	-415.803558	-409.034485	64.063469	-361.212921	-452.897156	62.338673	-298.742523	-249.002472	64.457848	-348.901306
36	0.35000000	-332.761780	1317.546387	17.147438	-335.605652	1359.986694	-419.718353	-400.951691	1423.194458	-208.563416	-267.976837	1321.804077	-214.680054	-389.304230	1052.852905	127.703072	-337.424500	1078.103271	-545.706970	-323.277985	802.671204	145.945385	-263.555107	826.179840	-573.435486	-255.467453	905.281311	-106.272690	-275.579041	917.974548	-356.408295	-447.642487	947.349121	-206.631775	-468.980286	1204.399292	-207.818039	-218.990158	1167.108276	-228.589508	-317.495880	576.075073	-7.085520	-372.684235	460.682983	-83.478554	-388.805664	246.106842	-20.212900	-409.071228	64.128998	-81.966843	-451.091583	54.457516	-136.662399	-272.014374	43.317757	-97.055161	-368.447266	584.862915	-425.328522	-366.641693	478.123688	-373.886230	-412.495941	239.974228	-415.825317	-409.013062	64.027710	-361.278442	-452.896088	62.339951	-298.736816	-249.099869	64.363220	-348.927765
37	0.36000000	-332.793030	1317.434448	17.148237	-335.088440	1359.968018	-419.208160	-401.035309	1423.142822	-208.533615	-268.144562	1321.656982	-214.777710	-389.528259	1052.809570	127.630135	-337.302917	1077.908813	-545.628540	-323.396942	802.385803	145.752953	-263.433708	826.188446	-573.282196	-255.618195	905.320435	-106.266518	-275.090271	917.827637	-356.153992	-447.699890	947.350464	-206.600159	-469.122833	1204.273071	-207.828445	-219.102325	1167.161377	-228.630707	-317.627441	576.197449	-6.926158	-372.715485	460.745361	-83.485626	-389.300385	246.410599	-19.898354	-408.437439	63.276024	-82.187912	-451.024017	54.429157	-136.526917	-271.984222	43.309368	-97.071487	-368.509979	584.882263	-425.303223	-366.658691	478.133453	-373.790466	-412.465973	239.939896	-415.781769	-409.066101	64.081917	-361.284332	-452.941895	62.287899	-298.726990	-249.172455	64.349800	-348.944458
38	0.37000000	-332.962463	1317.404907	17.156174	-335.343597	1359.867432	-419.487701	-400.967255	1423.197998	-208.578110	-268.221344	1321.653687	-214.698761	-389.664276	1052.813843	127.598045	-337.350159	1077.801025	-545.452698	-323.570618	802.071259	145.627064	-263.448334	826.117889	-573.040070	-255.694366	905.278442	-106.287773	-274.952606	918.143921	-356.191376	-447.701294	947.343811	-206.706512	-469.089233	1204.281860	-207.879135	-219.085678	1167.205811	-228.618530	-317.763672	576.266785	-6.828297	-372.664520	460.722412	-83.479355	-389.382721	246.436707	-19.845573	-408.880463	63.856804	-82.040489	-451.079926	54.418507	-136.589554	-271.970825	43.262337	-97.068489	-368.462616	584.810913	-425.302856	-366.893372	478.091766	-373.720825	-412.372864	239.907364	-415.684784	-409.120422	64.069389	-361.240692	-452.812256	62.179623	-298.766602	-249.273041	64.264206	-348.956024
39	0.38000000	-332.956390	1317.420410	17.059391	-335.631989	1359.853882	-419.668304	-401.031067	1423.126099	-208.543610	-268.101471	1321.633423	-214.675980	-390.152283	1053.038330	127.917892	-337.321716	1077.831299	-545.427002	-323.167664	801.979858	145.618084	-263.422356	826.057709	-572.858215	-255.807175	905.270325	-106.350723	-275.048279	918.203003	-356.284607	-447.696869	947.341919	-206.715698	-469.082184	1204.269897	-207.883835	-218.993088	1167.227173	-228.589264	-317.745026	576.211304	-6.884839	-372.594727	460.771851	-83.460197	-389.443573	246.438538	-19.896620	-409.075470	63.960247	-82.147095	-451.128815	54.444378	-136.645020	-271.999420	43.310734	-97.061592	-368.489044	584.773743	-425.299377	-366.713531	478.172699	-373.746735	-412.416565	239.914597	-415.796143	-409.101776	64.066559	-361.274292	-452.877686	62.303291	-298.746185	-249.276993	64.384109	-348.889038
40	0.39000000	-333.029297	1317.472290	17.022924	-335.554108	1359.902588	-419.627106	-401.113190	1423.138916	-208.646942	-267.950562	1321.820923	-214.564667	-390.441498	1053.066772	127.987160	-337.311218	1077.557617	-545.293152	-323.507034	801.899048	145.342972	-263.533951	825.990753	-572.688416	-255.829941	905.206909	-106.366074	-274.888550	917.961731	-356.057281	-447.679810	947.330994	-206.740219	-469.009186	1204.262207	-207.927536	-218.894379	1167.245850	-228.560486	-317.530182	576.033264	-7.071610	-372.572449	460.708374	-83.443794	-388.106018	245.022079	-21.332785	-409.097778	64.046677	-81.991295	-451.070648	54.427261	-136.651520	-272.022675	43.349419	-97.055489	-368.720001	584.792297	-425.515015	-366.739380	478.148468	-373.932098	-412.351746	239.907028	-415.731171	-409.095947	64.066132	-361.280426	-452.795624	62.228786	-298.800476	-249.149292	64.318161	-348.894348
41	0.40000000	-333.217804	1317.363037	17.010496	-335.679382	1359.828857	-419.677551	-401.125946	1423.185059	-208.660706	-267.433716	1321.989746	-214.326248	-390.218414	1052.840454	127.636505	-337.135590	1077.434326	-545.066956	-323.872391	801.803741	145.101044	-263.452271	825.916840	-572.445251	-255.756912	905.239258	-106.431755	-275.009766	918.135681	-356.199371	-447.729523	947.402954	-206.836487	-469.137207	1204.290649	-207.954910	-218.802139	1167.340332	-228.485474	-317.510712	576.123108	-7.044276	-372.516968	460.622070	-83.516640	-388.465851	245.747528	-20.401588	-409.005341	63.979561	-82.011574	-451.120575	54.441681	-136.645370	-272.128784	43.515678	-97.004814	-368.918732	584.852051	-425.657013	-366.746094	478.171906	-373.957336	-412.411499	239.914780	-415.795197	-409.096313	64.066200	-361.279144	-452.774902	62.227432	-298.807556	-249.157227	64.397888	-348.868500
